<svg xmlns="http://www.w3.org/2000/svg" width="120" height="41" viewBox="0 0 120 41">
  <g id="App_store" data-name="App store" transform="translate(-193 -382)">
    <text id="Download_On_the" data-name="Download On the" transform="translate(237 398)" fill="#58585a" font-size="5" font-family="BwModelica-Bold, Bw Modelica" font-weight="700"><tspan x="0" y="0">Download On the</tspan></text>
    <text id="App_Store-2" data-name="App Store" transform="translate(234 410)" fill="#58585a" font-size="13" font-family="BwModelica-Bold, Bw Modelica" font-weight="700"><tspan x="0" y="0">App Store</tspan></text>
    <g id="Layer_2" data-name="Layer 2" transform="translate(205 389.001)">
      <g id="Layer_1" data-name="Layer 1" transform="translate(0 -0.001)">
        <path id="Path_8" data-name="Path 8" d="M0,121.832a11.009,11.009,0,0,1,1.059-4.979,6.291,6.291,0,0,1,5.383-3.49,4.484,4.484,0,0,1,1.811.284c.769.266,1.533.546,2.3.814a1.868,1.868,0,0,0,1.38-.13,11.789,11.789,0,0,1,3.174-.935,6.421,6.421,0,0,1,5.527,1.919c.127.127.239.269.366.4.17.17.177.284-.06.426a5.223,5.223,0,0,0-1.748,1.712,5.1,5.1,0,0,0-.848,2.7,6.539,6.539,0,0,0,.3,2.6,6.31,6.31,0,0,0,2.9,3.118c.364.209.37.208.219.585a17.135,17.135,0,0,1-2.718,4.76,6.236,6.236,0,0,1-1.91,1.581,3.553,3.553,0,0,1-3.281-.044,5.419,5.419,0,0,0-4.532-.17,6.569,6.569,0,0,1-2.126.563,2.69,2.69,0,0,1-2.03-.63A15.452,15.452,0,0,1,.22,124.028a7.211,7.211,0,0,1-.114-.728C.062,122.762.029,122.225,0,121.832Z" transform="translate(0 -106.908)" fill="#58585b"/>
        <path id="Path_9" data-name="Path 9" d="M196.449.41a6.924,6.924,0,0,1-1.643,4.2,4.936,4.936,0,0,1-3.617,1.571c-.219.009-.223-.129-.215-.278a6.211,6.211,0,0,1,1.249-3.582A6.506,6.506,0,0,1,196.179.014C196.59-.076,196.387.254,196.449.41Z" transform="translate(-180.131 0.001)" fill="#58585b"/>
      </g>
    </g>
    <g id="Rectangle_634" data-name="Rectangle 634" transform="translate(193 382)" fill="none" stroke="#58585b" stroke-width="1.5">
      <rect width="120" height="41" rx="6" stroke="none"/>
      <rect x="0.75" y="0.75" width="118.5" height="39.5" rx="5.25" fill="none"/>
    </g>
  </g>
</svg>
