<svg xmlns="http://www.w3.org/2000/svg" viewBox="0 0 544.68 165.21"><defs><style>.cls-1{fill:#231f20;stroke:#bdbcbc;stroke-miterlimit:10;stroke-width:4px;}.cls-2,.cls-4{fill:#fff;}.cls-2,.cls-3{isolation:isolate;}</style></defs><g id="Layer_2" data-name="Layer 2"><g id="Layer_1-2" data-name="Layer 1"><rect class="cls-1" x="2" y="2" width="540.68" height="161.21" rx="18.12"/><path class="cls-2" d="M79.63,135.71H77.32a2.55,2.55,0,0,0-.85-.19,13.81,13.81,0,0,1-5.55-2.69,36,36,0,0,1-6.3-6.51,66.28,66.28,0,0,1-7.69-11.9,64.8,64.8,0,0,1-6.82-25c0-.07,0-.15-.07-.19V84.51c.09-.05.07-.13.07-.2.06-1.07.16-2.13.3-3.19a32.7,32.7,0,0,1,4.2-12.58A27.17,27.17,0,0,1,66.2,57.66a25.6,25.6,0,0,1,8.52-2.5,19.07,19.07,0,0,1,4.53-.06,34.88,34.88,0,0,1,7,1.78c2.42.85,4.81,1.8,7.29,2.46a5.35,5.35,0,0,0,3.12.17c.69-.22,1.4-.4,2.1-.61,2.76-.85,5.43-2,8.2-2.81a27.18,27.18,0,0,1,8-1.37,30.35,30.35,0,0,1,9.89,1.77A23.74,23.74,0,0,1,136.39,65c.21.29.15.4-.13.57a26.79,26.79,0,0,0-3,2.1,21.92,21.92,0,0,0-7.39,10.36,24.52,24.52,0,0,0-.95,10.35,21.39,21.39,0,0,0,3.48,9.79,24.84,24.84,0,0,0,10.77,9c.23.1.28.2.19.44a69.2,69.2,0,0,1-3.14,7.56,67.57,67.57,0,0,1-7.74,11.89,30.85,30.85,0,0,1-5,5.18,13.28,13.28,0,0,1-11.58,3,39.76,39.76,0,0,1-6-1.92,24.26,24.26,0,0,0-8.56-1.9,24.75,24.75,0,0,0-9.65,1.9,44.39,44.39,0,0,1-5.53,1.87C81.34,135.44,80.48,135.55,79.63,135.71Z"/><path class="cls-2" d="M117.11,30.59a21.64,21.64,0,0,1-3.85,12.35,26.87,26.87,0,0,1-8.85,8.48A16.44,16.44,0,0,1,95.3,53.7c-.35,0-.45-.13-.48-.47a20.79,20.79,0,0,1,3-12.22,24.78,24.78,0,0,1,15.56-11.85,19.36,19.36,0,0,1,3.29-.57c.31,0,.41.05.42.36C117.06,29.55,117.13,30.14,117.11,30.59Z"/><g class="cls-3"><path class="cls-4" d="M223.24,59c0,6.84-4.46,11.42-11.17,11.42h-8.36V47.47h8.36C218.78,47.47,223.24,52.05,223.24,59Zm-3.41,0c0-5.26-3.15-8.76-7.89-8.76H207V67.65h4.92C216.68,67.65,219.83,64.15,219.83,59Z"/><path class="cls-4" d="M226.09,62.11c0-5.14,3.47-8.58,8.63-8.58s8.61,3.44,8.61,8.58-3.47,8.57-8.61,8.57S226.09,67.24,226.09,62.11Zm14,0c0-3.5-2.14-5.85-5.33-5.85s-5.35,2.35-5.35,5.85S231.5,68,234.72,68,240.05,65.6,240.05,62.11Z"/><path class="cls-4" d="M272.32,53.84l-6.25,16.53h-3.18l-4.4-12.81L254.1,70.37h-3.19l-6.25-16.53h3.47l4.58,12.91,4.45-12.91h2.66l4.46,12.91,4.58-12.91Z"/><path class="cls-4" d="M290.49,60v10.4h-3.15V60.53c0-2.57-1.83-4.27-4.58-4.27s-4.58,1.7-4.58,4.27v9.84H275V53.84h3l.07,2.45a6.5,6.5,0,0,1,5.69-2.76C287.8,53.53,290.49,56.1,290.49,60Z"/><path class="cls-4" d="M295,46.23h3.16V70.37H295Z"/><path class="cls-4" d="M302,62.11c0-5.14,3.46-8.58,8.63-8.58s8.6,3.44,8.6,8.58-3.46,8.57-8.6,8.57S302,67.24,302,62.11Zm13.95,0c0-3.5-2.13-5.85-5.32-5.85s-5.35,2.35-5.35,5.85S307.36,68,310.58,68,315.9,65.6,315.9,62.11Z"/><path class="cls-4" d="M335.87,60v10.4H332.8l-.06-2.91a6.4,6.4,0,0,1-5.63,3.22c-3.31,0-5.57-2-5.57-5s2.75-5.14,6.9-5.14a20.64,20.64,0,0,1,4.27.46v-.74c0-2.63-1.7-4.27-4.49-4.27A5.84,5.84,0,0,0,324,57.65l-1.39-1.89A9.13,9.13,0,0,1,329,53.53C333.11,53.53,335.87,56.1,335.87,60Zm-3.16,3.25a18.87,18.87,0,0,0-3.87-.43c-2.41,0-4,1.14-4,2.84S326,68.39,328,68.39A4.9,4.9,0,0,0,332.71,63.22Z"/><path class="cls-4" d="M356.48,46.23V70.37h-3.07l-.06-3a6.61,6.61,0,0,1-6.09,3.34c-4.55,0-7.93-3.41-7.93-8.51s3.38-8.64,7.93-8.64a6.54,6.54,0,0,1,6.06,3.32V46.23Zm-3.16,15.88c0-3.5-2.17-5.85-5.35-5.85s-5.36,2.35-5.36,5.88S344.75,68,348,68,353.32,65.63,353.32,62.11Z"/><path class="cls-4" d="M368.09,62.11c0-5.14,3.46-8.58,8.63-8.58s8.6,3.44,8.6,8.58-3.46,8.57-8.6,8.57S368.09,67.24,368.09,62.11Zm14,0c0-3.5-2.13-5.85-5.32-5.85s-5.35,2.35-5.35,5.85S373.5,68,376.72,68,382,65.6,382,62.11Z"/><path class="cls-4" d="M404.48,60v10.4h-3.16V60.53c0-2.57-1.82-4.27-4.58-4.27s-4.58,1.7-4.58,4.27v9.84H389V53.84h3l.06,2.45a6.53,6.53,0,0,1,5.69-2.76C401.79,53.53,404.48,56.1,404.48,60Z"/><path class="cls-4" d="M426.39,67.4v2.54a10.1,10.1,0,0,1-4.08.74,4.56,4.56,0,0,1-4.77-4.86V56.44h-2.81v-2.6h2.81V49h3.16v4.82h5.44v2.6H420.7v8.73A2.55,2.55,0,0,0,423.3,68,8.3,8.3,0,0,0,426.39,67.4Z"/><path class="cls-4" d="M444.75,60v10.4h-3.16V60.53c0-2.57-1.83-4.27-4.58-4.27s-4.58,1.7-4.58,4.27v9.84h-3.16V46.23h3.16v10a6.5,6.5,0,0,1,5.63-2.67C442.05,53.53,444.75,56.1,444.75,60Z"/><path class="cls-4" d="M464.18,63.25H451.59c.31,3,1.88,4.92,4.76,4.92a5.88,5.88,0,0,0,4.74-2.41l2.41,1.3a8.33,8.33,0,0,1-7.12,3.62c-4.86,0-8.14-3.41-8.14-8.51s3.19-8.64,8-8.64,8,3.35,8,8.36A10.09,10.09,0,0,1,464.18,63.25Zm-12.59-2.16H461c-.28-3.16-2-5.05-4.73-5.05S451.87,58,451.59,61.09Z"/></g><g class="cls-3"><path class="cls-4" d="M226.81,110.61h-18l-3.17,7.77h-8l16.72-39.14h6.92L238,118.38h-8Zm-2.49-6.19-6.5-15.92-6.51,15.92Z"/><path class="cls-4" d="M271.81,104c0,8.94-6,14.92-13.64,14.92a10.87,10.87,0,0,1-9.47-4.65V130h-7.19V89.87h6.93l.15,4.29c2-3,5.19-4.81,9.58-4.81C265.83,89.35,271.81,95.16,271.81,104Zm-7.46.06c0-5.13-3.17-8.57-7.82-8.57s-7.83,3.44-7.83,8.62,3.12,8.62,7.83,8.62S264.35,109.28,264.35,104.05Z"/><path class="cls-4" d="M307.77,104c0,8.94-6,14.92-13.64,14.92a10.87,10.87,0,0,1-9.47-4.65V130h-7.19V89.87h6.93l.15,4.29c2-3,5.19-4.81,9.58-4.81C301.8,89.35,307.77,95.16,307.77,104Zm-7.46.06c0-5.13-3.17-8.57-7.82-8.57s-7.83,3.44-7.83,8.62,3.12,8.62,7.83,8.62S300.31,109.28,300.31,104.05Z"/><path class="cls-4" d="M326,114l2.8-5a16.3,16.3,0,0,0,10.63,3.75c4.92,0,7.78-1.69,7.78-4.71,0-3.17-3.28-4.54-8.2-5.92l-2.22-.63c-6.45-1.75-11.26-4.45-11.26-10.84,0-7.14,5.76-11.9,14.49-11.9a20.57,20.57,0,0,1,13.22,4.49l-3.33,5.18A15.07,15.07,0,0,0,340,84.9c-4.13,0-6.82,1.75-6.82,4.5,0,3.12,3.12,4.23,7,5.34l2.27.63c6,1.64,12.43,4.92,12.43,12s-6,11.58-15,11.58C334.48,118.91,329.45,117.22,326,114Z"/><path class="cls-4" d="M378.42,111.77v5.82a19.14,19.14,0,0,1-7.24,1.32c-5.24,0-8.78-3.6-8.78-9V95.74h-4.71V89.87h4.71V81.52h7.19v8.35H378v5.87h-8.41v12.7c0,2.59,1.59,4.28,3.91,4.28A12.48,12.48,0,0,0,378.42,111.77Z"/><path class="cls-4" d="M381.33,104.1c0-8.83,6.14-14.75,15.29-14.75s15.23,5.92,15.23,14.75-6.14,14.81-15.23,14.81S381.33,113,381.33,104.1Zm23.06,0c0-5.18-3.12-8.62-7.77-8.62s-7.83,3.44-7.83,8.62,3.12,8.62,7.83,8.62S404.39,109.28,404.39,104.1Z"/><path class="cls-4" d="M435,89.35,434.53,96c-5.92,0-9.83,2.85-9.83,7.14v15.28h-7.2V89.87h6.93l.11,3.81C426.81,90.88,430.41,89.35,435,89.35Z"/><path class="cls-4" d="M464.47,106.69H443.84c.53,4,2.64,6.56,6.82,6.56a8.85,8.85,0,0,0,7-3.38l5.56,2.8a14.62,14.62,0,0,1-12.43,6.24c-8.73,0-14.55-5.82-14.55-14.6,0-9,5.66-15,14.23-15s14.23,5.71,14.23,14.33A27.35,27.35,0,0,1,464.47,106.69Zm-20.63-4.86h13.28c-.53-4.34-2.81-6.83-6.67-6.83S444.42,97.49,443.84,101.83Z"/></g></g></g></svg>