<svg xmlns="http://www.w3.org/2000/svg" width="120" height="41" viewBox="0 0 120 41">
  <g id="Google_play" data-name="Google play" transform="translate(-68 -338)">
    <g id="Layer_2" data-name="Layer 2" transform="translate(77.021 346.8)">
      <g id="Layer_1" data-name="Layer 1" transform="translate(-0.022 -0.041)">
        <path id="Path_4" data-name="Path 4" d="M0,25.94V15.206c0-.255-.1-.62.144-.722.22-.094.38.253.547.42q5.344,5.33,10.677,10.669c.411.411.411.411,0,.823Q5.956,31.8.543,37.209c-.118.118-.226.364-.406.281S0,37.151,0,36.961Q0,31.451,0,25.94Z" transform="translate(0.022 -13.274)" fill="#58585a"/>
        <path id="Path_5" data-name="Path 5" d="M30.424,8.16a2.138,2.138,0,0,1-.165.214c-1,1.014-2.011,2.022-3.007,3.044-.208.214-.345.177-.537-.016Q21.193,5.867,15.667.341c-.082-.082-.239-.155-.173-.294s.222-.073.338-.068a1.984,1.984,0,0,1,.9.274q6.7,3.809,13.4,7.626C30.248,7.942,30.393,7.977,30.424,8.16Z" transform="translate(-14.203 0.041)" fill="#58585a"/>
        <path id="Path_6" data-name="Path 6" d="M15.779,179.338c-.109-.025-.253.044-.294-.095-.035-.121.093-.188.165-.262q1.377-1.383,2.759-2.762l8.193-8.193c.391-.391.392-.391.791.012q1.389,1.4,2.774,2.8c.351.356.353.364-.072.606q-6.694,3.812-13.389,7.62A2.113,2.113,0,0,1,15.779,179.338Z" transform="translate(-14.204 -153.932)" fill="#58585a"/>
        <path id="Path_7" data-name="Path 7" d="M177.31,112.714a1.723,1.723,0,0,1-.94,1.364c-.957.56-1.924,1.1-2.887,1.653-.368.211-.74.411-1.1.633a.38.38,0,0,1-.542-.053q-1.677-1.693-3.373-3.369c-.2-.194-.169-.329.014-.507q1.7-1.668,3.389-3.35a.363.363,0,0,1,.5-.055c1.329.764,2.668,1.512,3.994,2.281A1.686,1.686,0,0,1,177.31,112.714Z" transform="translate(-154.477 -99.986)" fill="#58585a"/>
      </g>
    </g>
    <g id="Google_Play_2015" transform="translate(-41 326.043)">
      <path id="path46" d="M168.773,32.376a3.766,3.766,0,1,0,3.748,3.766A3.707,3.707,0,0,0,168.773,32.376Zm0,6.05a2.292,2.292,0,1,1,2.106-2.285A2.177,2.177,0,0,1,168.773,38.427Zm-8.174-6.05a3.766,3.766,0,1,0,3.748,3.766A3.7,3.7,0,0,0,160.6,32.376Zm0,6.05a2.292,2.292,0,1,1,2.106-2.285A2.177,2.177,0,0,1,160.6,38.427Zm-9.709-4.89v1.588h3.784a3.3,3.3,0,0,1-.857,2,3.869,3.869,0,0,1-2.927,1.16,4.249,4.249,0,0,1,0-8.5,4,4,0,0,1,2.856,1.142l1.124-1.124a5.523,5.523,0,0,0-3.98-1.606,5.836,5.836,0,1,0,0,11.672,5.161,5.161,0,0,0,5.426-5.372,5.47,5.47,0,0,0-.089-1Zm39.747,1.231a3.476,3.476,0,0,0-3.195-2.392,3.553,3.553,0,0,0-3.516,3.766,3.709,3.709,0,0,0,6.8,2.106l-1.267-.857a2.129,2.129,0,0,1-1.838,1.035,1.861,1.861,0,0,1-1.8-1.142l5-2.088Zm-5.087,1.267a2.071,2.071,0,0,1,1.945-2.2,1.442,1.442,0,0,1,1.392.8ZM181.5,39.676h1.642V28.628H181.5Zm-2.7-6.461h-.054a2.566,2.566,0,0,0-1.963-.839,3.762,3.762,0,0,0,0,7.514,2.515,2.515,0,0,0,1.963-.857h.054v.535c0,1.446-.767,2.213-2,2.213a2.065,2.065,0,0,1-1.874-1.339l-1.428.607a3.56,3.56,0,0,0,3.3,2.231c1.928,0,3.552-1.142,3.552-3.909V32.608H178.8Zm-1.874,5.212a2.286,2.286,0,0,1,0-4.551,2.295,2.295,0,0,1,0,4.551Zm21.382-9.8h-3.926V39.676h1.642V35.482h2.285a3.431,3.431,0,1,0,0-6.854Zm.054,5.319h-2.338V30.163h2.338a1.92,1.92,0,0,1,1.928,1.892A1.944,1.944,0,0,1,198.365,33.947Zm10.12-1.588a3.035,3.035,0,0,0-2.909,1.7l1.446.607a1.565,1.565,0,0,1,1.5-.8,1.589,1.589,0,0,1,1.731,1.428v.107a3.526,3.526,0,0,0-1.713-.428c-1.571,0-3.159.875-3.159,2.481a2.534,2.534,0,0,0,2.713,2.427,2.283,2.283,0,0,0,2.088-1.089h.054v.857h1.588V35.41A3.04,3.04,0,0,0,208.484,32.359Zm-.2,6.05c-.535,0-1.285-.268-1.285-.928,0-.857.928-1.178,1.731-1.178a2.941,2.941,0,0,1,1.5.375A1.976,1.976,0,0,1,208.288,38.409Zm9.281-5.8-1.874,4.783h-.054L213.7,32.608h-1.767l2.927,6.693-1.66,3.73h1.713l4.5-10.423Zm-14.742,7.068h1.642V28.628h-1.642Z" transform="translate(0 0)" fill="#58585b"/>
    </g>
    <text id="ANDROID_APP_ON" data-name="ANDROID APP ON" transform="translate(105 350)" fill="#58585a" font-size="5" font-family="BwModelica-Bold, Bw Modelica" font-weight="700"><tspan x="0" y="0">ANDROID APP ON</tspan></text>
    <g id="Rectangle_633" data-name="Rectangle 633" transform="translate(68 338)" fill="none" stroke="#58585b" stroke-width="1.5">
      <rect width="120" height="41" rx="6" stroke="none"/>
      <rect x="0.75" y="0.75" width="118.5" height="39.5" rx="5.25" fill="none"/>
    </g>
  </g>
</svg>
