<svg xmlns="http://www.w3.org/2000/svg" viewBox="0 0 544.68 165.21"><defs><style>.cls-1{fill:#231f20;stroke:#bdbcbc;stroke-miterlimit:10;stroke-width:4px;}.cls-2{isolation:isolate;}.cls-3{fill:#fff;}</style></defs><g id="Layer_2" data-name="Layer 2"><g id="Layer_1-2" data-name="Layer 1"><rect class="cls-1" x="2" y="2" width="540.68" height="161.21" rx="18.12"/><g class="cls-2"><path class="cls-3" d="M224.79,57.78c0,7.12-4.27,11.76-11,11.76-6.9,0-11.48-4.7-11.48-11.76S206.84,46,213.77,46a12.12,12.12,0,0,1,7.86,2.45l-2.17,2.07a8.27,8.27,0,0,0-5.66-1.79c-4.86,0-8.11,3.62-8.11,9s3.25,9,8.11,9c4.39,0,7.27-2.91,7.55-7.36H214.7V56.73h10.06C224.79,57.07,224.79,57.44,224.79,57.78Z"/><path class="cls-3" d="M243.7,66.51v2.72h-15V46.33h14.79v2.73H232v7.18h10.61V59H232v7.55Z"/><path class="cls-3" d="M263.54,49.06h-7.18V69.23h-3.31V49.06h-7.18V46.33h17.67Z"/><path class="cls-3" d="M274,46.33h3.31v22.9H274Z"/><path class="cls-3" d="M298.32,49.06h-7.17V69.23h-3.32V49.06h-7.17V46.33h17.66Z"/><path class="cls-3" d="M307.3,57.78C307.3,50.73,312,46,319,46s11.7,4.71,11.7,11.76S326,69.54,319,69.54,307.3,64.84,307.3,57.78Zm20,0c0-5.41-3.34-9-8.29-9s-8.29,3.62-8.29,9,3.31,9,8.29,9S327.32,63.2,327.32,57.78Z"/><path class="cls-3" d="M335.16,46.33h2.07L352.46,63.6l-.1-17.27h3.31v22.9H353.6L338.41,52l.06,17.26h-3.31Z"/></g><g class="cls-2"><path class="cls-3" d="M56.43,40.77c.12-1.24.18-2.49.41-3.72a15.43,15.43,0,0,1,1.39-4.33c.33-.63.36-.64.87-.13L81.26,54.75,108.6,82.09c.6.6.6.6,0,1.18L59.18,132.6a1.8,1.8,0,0,0-.2.19c-.28.35-.48.29-.68-.09A14.7,14.7,0,0,1,57,128.81a20.26,20.26,0,0,1-.46-3.88,3.21,3.21,0,0,0-.07-.43Z"/><path class="cls-3" d="M64.69,136.62c.12-.14.23-.28.36-.41l48.27-48.33c.59-.59.59-.59,1.17,0L130,103.5c.52.52.52.52-.11.86L97.33,122c-6.84,3.7-13.68,7.42-20.54,11.09a30.33,30.33,0,0,1-8.44,3.28c-.44.09-.9.16-1.35.24Z"/><path class="cls-3" d="M130.41,61.35a4,4,0,0,1-.35.38L118.44,73.4c-1.36,1.37-2.72,2.74-4.06,4.12-.34.35-.54.4-.92,0Q89.29,53.33,65.12,29.13c-.12-.12-.37-.24-.28-.43s.33-.08.51-.09a19.11,19.11,0,0,1,7.82,1.83c3.29,1.41,6.39,3.2,9.54,4.9q11.06,6,22.08,12L130,61C130.17,61.05,130.38,61.08,130.41,61.35Z"/><path class="cls-3" d="M157.8,82.61A10.06,10.06,0,0,1,155,89.27a27,27,0,0,1-7.47,5.56c-3.4,1.86-6.81,3.69-10.2,5.56a.82.82,0,0,1-1.17-.16q-8.49-8.52-17-17c-.51-.52-.52-.53,0-1L136.3,64.9c.21-.22.39-.35.71-.17,4.52,2.52,9.19,4.77,13.56,7.54a18.82,18.82,0,0,1,5.3,4.84A9.63,9.63,0,0,1,157.8,82.61Z"/></g><g class="cls-2"><path class="cls-3" d="M231.9,97.88c2.8,0,5.59,0,8.39,0,.81,0,1.13.3,1.21,1.07,1.17,10.58-4.68,19.38-15.39,21.06a20.5,20.5,0,0,1-18.55-6.06A19.36,19.36,0,0,1,201.73,99,20.59,20.59,0,0,1,218.55,79.8a19.71,19.71,0,0,1,17.06,4.39c1,.83,1,.84.09,1.73s-1.76,1.73-2.61,2.62c-.4.44-.69.44-1.15,0a14.5,14.5,0,0,0-19.71.76,14.31,14.31,0,0,0-3.66,14.7,13.67,13.67,0,0,0,11.36,10.26c5,.9,9.59-.3,13.18-4.19a11.08,11.08,0,0,0,2.55-5.94c.06-.36-.1-.52-.44-.52H223.55c-1.1,0-1.13,0-1.13-1.09V99c0-1.08.06-1.14,1.18-1.14Z"/><path class="cls-3" d="M320.71,96.79c0-.28.07-.4.07-.53,0-1.63-.14-1.54,1.57-1.54,1,0,2.09,0,3.13,0,.72,0,1,.25.95,1,0,2.27,0,4.54,0,6.82,0,5.3,0,10.61,0,15.92a18,18,0,0,1-.82,5.5,10.79,10.79,0,0,1-8.29,7.73c-4.77,1.09-9,.11-12.56-3.41a12.79,12.79,0,0,1-2.31-3.28c-.27-.53-.21-.83.38-1.06,1.18-.46,2.35-.94,3.49-1.46.64-.29,1-.21,1.35.46a7,7,0,0,0,8,3.66,6.21,6.21,0,0,0,4.91-5.42,17,17,0,0,0,.18-3.19c0-.15,0-.3-.07-.56-.49.42-.88.79-1.32,1.1a10.11,10.11,0,0,1-9.49,1.13,13.26,13.26,0,0,1,1.42-25.43A9.86,9.86,0,0,1,320.71,96.79Zm.42,10.12a7.89,7.89,0,0,0-.82-3.67,6.69,6.69,0,0,0-10.09-2.74c-3.89,2.7-4.37,9-.94,12.38a6.73,6.73,0,0,0,10-.35A8,8,0,0,0,321.13,106.91Z"/><path class="cls-3" d="M375.71,100.08V82c0-1.25,0-1.25,1.21-1.25,4.28,0,8.55,0,12.83,0,5.73,0,10.84,3.85,12.17,9,1.76,6.85-2.59,13.45-9.77,14.81a18.9,18.9,0,0,1-3.36.29c-2,0-4,0-6,0-1.24,0-1.24,0-1.24,1.2v12.15c0,1.15,0,1.15-1.13,1.16H376.8c-1.07,0-1.08,0-1.09-1.12V100.08Zm5.84-7.3c0,1.92,0,3.83,0,5.75,0,.6.22.82.82.81,2.63,0,5.26,0,7.89,0a6.48,6.48,0,0,0,.35-12.92c-2.79-.27-5.59-.06-8.38-.13-.58,0-.68.3-.67.78C381.56,89,381.55,90.87,381.55,92.78Z"/><path class="cls-3" d="M431.48,116.67c-.74.52-1.21,1.19-1.86,1.69a10.2,10.2,0,0,1-11.23.34,8.16,8.16,0,0,1-3.83-4.94c-1.08-4.16,1-8,5.35-9.75a13.54,13.54,0,0,1,10.79,0c.64.28.76.15.67-.5a4.22,4.22,0,0,0-.67-1.83c-2-3-7.31-3.39-9.74-.75-.94,1-.94,1-2.25.47l-2.8-1.18c-.94-.39-1-.46-.44-1.36a9.34,9.34,0,0,1,5-4.1,13.73,13.73,0,0,1,11.75.8,9.21,9.21,0,0,1,4.9,8.21c.15,4.93,0,9.85.06,14.78,0,.64-.24.88-.87.86-1.35,0-2.69,0-4,0-.57,0-.8-.23-.78-.79S431.48,117.32,431.48,116.67Zm-4.91-8.93a8.4,8.4,0,0,0-4.49,1,3.37,3.37,0,0,0-1.86,3.31,3.08,3.08,0,0,0,2.48,2.63,6.85,6.85,0,0,0,8.57-4.82.89.89,0,0,0-.55-1.18A9.18,9.18,0,0,0,426.57,107.74Z"/><path class="cls-3" d="M256.73,120.23A13.17,13.17,0,1,1,270,107.15,13,13,0,0,1,256.73,120.23Zm7.32-13.3a7.55,7.55,0,0,0-.39-2.55,7.2,7.2,0,0,0-11.1-3.81c-2.54,1.83-3.32,4.44-3.12,7.44a7.33,7.33,0,0,0,10,6.41C262.23,113.33,264,110.47,264.05,106.93Z"/><path class="cls-3" d="M285.5,120.23a13.17,13.17,0,1,1,13.29-13.08A13,13,0,0,1,285.5,120.23Zm-7.29-13.13a8.43,8.43,0,0,0,.21,2.12c1.37,5.28,7.21,7.46,11.46,4.21,2.33-1.77,3.1-4.27,2.94-7.12a7.34,7.34,0,0,0-9.51-6.75C280.25,100.47,278.21,103.49,278.21,107.1Z"/><path class="cls-3" d="M351.9,120.23a12.78,12.78,0,0,1-13-12,13,13,0,0,1,3.86-10.92,11.79,11.79,0,0,1,18.13,1.74,21.1,21.1,0,0,1,2.06,4c.25.62.06.86-.51,1.1-5,2-10,4.11-15,6.17a9.85,9.85,0,0,1-1.06.44c-.72.21-.63.56-.29,1.07a7.16,7.16,0,0,0,10.52,1.42,12.69,12.69,0,0,0,1.1-1.1c.74-.83.73-.84,1.68-.21s1.94,1.33,2.95,2c.53.33.53.61.17,1.1A13,13,0,0,1,351.9,120.23Zm-7.21-14.41c-.05.42,0,.77.7.47q5.07-2.13,10.16-4.21c.63-.25.64-.57.25-1a5,5,0,0,0-2.57-1.68A7,7,0,0,0,344.69,105.82Z"/><path class="cls-3" d="M450.53,111.21c.41-.21.44-.53.55-.8,1.94-4.91,3.89-9.82,5.8-14.74a1.3,1.3,0,0,1,1.45-1c1.5.07,3,0,4.52,0,.93,0,1,.07.6.93L457.6,109q-4.59,10.53-9.17,21.08a1.49,1.49,0,0,1-1.64,1.1c-1.34-.08-2.68,0-4,0-.86,0-.94-.12-.59-.9,1.56-3.47,3.07-7,4.73-10.38a3.82,3.82,0,0,0,0-3.61c-3.12-6.9-6.14-13.86-9.21-20.79-.28-.62-.17-.83.52-.82,1.51,0,3,.06,4.52,0a1.27,1.27,0,0,1,1.38,1c1.6,4,3.23,7.9,4.85,11.85C449.5,108.75,450,110,450.53,111.21Z"/><path class="cls-3" d="M336.14,100.1v18.22c0,1.09,0,1.1-1.1,1.11-1.34,0-2.69,0-4,0-.61,0-.84-.24-.82-.82s0-1.21,0-1.81V82.09c0-1.31,0-1.32,1.31-1.32s2.41,0,3.62,0c.79,0,1,.26,1,1C336.13,87.9,336.14,94,336.14,100.1Z"/><path class="cls-3" d="M411.29,100.18v18c0,1.18,0,1.19-1.18,1.2s-2.58,0-3.87,0c-.67,0-.92-.24-.91-.91,0-2.11,0-4.21,0-6.32V82c0-1.24,0-1.24,1.22-1.24s2.41,0,3.61,0,1.12,0,1.12,1.1Z"/></g></g></g></svg>