<svg xmlns="http://www.w3.org/2000/svg" xmlns:xlink="http://www.w3.org/1999/xlink" width="375" height="812" viewBox="0 0 375 812"><defs><style>.a{clip-path:url(#e);}.b,.f{opacity:0;}.aj,.c{fill:none;}.d,.q,.x{fill:#2b8d86;}.e{fill:#f7f8fc;}.ao,.f,.r,.s,.w{fill:#fff;}.g{fill:#f44336;}.h{fill:#ffa000;}.i{fill:#ffc107;}.j{fill:#607d8b;}.k{fill:#4caf50;}.l{fill:#e8e8e8;}.m,.n{fill:#04002c;}.m{opacity:0.166;}.ao,.n,.p{stroke:#ebf0f0;}.ao,.az,.n,.o,.p{stroke-width:3px;}.n{opacity:0.174;}.aw,.o{fill:#fdecd8;}.az,.o{stroke:#fcf2e7;}.bb,.p,.u,.v{fill:#1a273a;}.q{font-size:18px;font-family:KumbhSans-Regular, Kumbh Sans;}.q,.s{letter-spacing:-0.025em;}.r{font-size:10px;font-family:BwModelica-Regular, Bw Modelica;}.s{font-size:29px;font-family:LucidaGrande-Bold, Lucida Grande;}.ak,.bb,.s{font-weight:700;}.t{font-family:KumbhSans-Bold, Kumbh Sans;}.u{font-size:11px;}.u,.v{font-family:BwModelica-Medium, Bw Modelica;font-weight:500;}.v{font-size:20px;}.x,.y{font-size:8px;font-family:Questrial-Regular, Questrial;}.ah,.y{fill:#a2a2a2;}.z{fill:#f7f7f7;}.aa{fill:#ededed;}.ab{fill:#fe4f60;}.ac{fill:#ff6d7a;}.ad{fill:#4c3546;}.ae{fill:#ffbd7b;}.af{fill:#b2b2b2;}.ag{fill:#e2e2e2;}.ai{fill:#a2d0ff;}.aj{stroke:#243857;}.ak{fill:#1d2e4c;}.ak,.bb{font-size:12px;font-family:BwModelica-Bold, Bw Modelica;}.al{fill:#f2881e;}.am{fill:#a4f2b3;}.an{fill:#d3f8d7;}.ap{fill:#437245;}.aq{fill:#f2a4a4;}.ar{fill:#f8d3d3;}.as{fill:#724343;}.at{fill:#d3e6f8;}.au{fill:#a4cff2;}.av{fill:#4c4372;}.ax{fill:#ebdac6;}.ay,.az{fill:#f49e21;}.ba{fill:url(#c);}.bc{opacity:0.7;mix-blend-mode:multiply;isolation:isolate;}.bd,.be{stroke:none;}.be{fill:#ebf0f0;}.bf{fill:#f5f5f5;}.bg{filter:url(#a);}</style><filter id="a" x="9" y="784" width="358" height="144" filterUnits="userSpaceOnUse"><feOffset dy="3" input="SourceAlpha"/><feGaussianBlur stdDeviation="3" result="b"/><feFlood flood-opacity="0.161"/><feComposite operator="in" in2="b"/><feComposite in="SourceGraphic"/></filter><pattern id="c" preserveAspectRatio="none" width="100%" height="100%" viewBox="0 0 583 380"><image width="583" height="380" xlink:href="4x/cards@4x.png"/></pattern><clipPath id="e"><rect width="375" height="812"/></clipPath></defs><g id="d" class="a"><rect class="bf" width="375" height="812"/><g class="b" transform="translate(15.5 947.5)"><path class="c" d="M0,0H33.2V33.2H0Z"/><path class="d" d="M11.288,22.577A11.288,11.288,0,1,1,22.577,11.288,11.3,11.3,0,0,1,11.288,22.577Zm0-10.353h0l2.195,2.19a.665.665,0,0,0,.939,0,.666.666,0,0,0,0-.939l-2.194-2.188L14.414,9.1a.667.667,0,0,0,0-.939.664.664,0,0,0-.939,0L11.29,10.347,9.1,8.162a.664.664,0,1,0-.938.939l2.188,2.184-2.19,2.19a.664.664,0,0,0,.939.939l2.189-2.19Z" transform="translate(5.312 5.312)"/></g><rect class="e" width="378" height="217" transform="translate(-3 335)"/><g transform="matrix(0.996, -0.087, 0.087, 0.996, -67.584, 29.062)"><rect class="f" width="68" height="57" transform="translate(22 755)"/><rect class="f" width="55" height="57" transform="translate(95 755)"/><rect class="f" width="55" height="57" transform="translate(160 755)"/><rect class="f" width="55" height="57" transform="translate(229 755)"/><rect class="f" width="55" height="57" transform="translate(292 755)"/></g><g transform="translate(330.911 21)"><path class="g" d="M241.463,0a6.795,6.795,0,1,0,6.795,6.795A6.8,6.8,0,0,0,241.463,0Zm1.045,9.147a.784.784,0,0,1-1.568,0v-3.4h-.523a.784.784,0,0,1,0-1.568h1.307a.784.784,0,0,1,.784.784Zm0,0" transform="translate(-223.169)"/><path class="h" d="M136.363,345.514a4.181,4.181,0,1,1-4.182-4.182A4.181,4.181,0,0,1,136.363,345.514Zm0,0" transform="translate(-121.728 -324.606)"/><path class="i" d="M18.628,56.241c-.112,0-.222.017-.335.017A8.868,8.868,0,0,1,10.76,42.684c-.1,0-.2-.016-.306-.016a7.325,7.325,0,0,0-7.317,7.317V52.9a7.009,7.009,0,0,1-2.5,5.366,1.829,1.829,0,0,0,1.19,3.219H19.078a1.829,1.829,0,0,0,1.179-3.228A7.012,7.012,0,0,1,18.628,56.241Zm0,0" transform="translate(0 -40.577)"/></g><g transform="translate(20.661 22)"><path class="j" d="M95.133,4.9a4.9,4.9,0,1,1-4.9-4.9A4.9,4.9,0,0,1,95.133,4.9Zm0,0" transform="translate(-81.412)"/><path class="j" d="M9.311,261.39A7.805,7.805,0,0,1,11.473,256H4.655A4.661,4.661,0,0,0,0,260.655v3.43a.735.735,0,0,0,.735.735h9.376A7.783,7.783,0,0,1,9.311,261.39Zm0,0" transform="translate(0 -244.239)"/><path class="k" d="M241.038,234.668a6.37,6.37,0,1,0,6.37,6.37A6.378,6.378,0,0,0,241.038,234.668ZM243.2,243.2a.979.979,0,0,1-1.386,0l-1.47-1.47a.975.975,0,0,1-.287-.693v-2.45a.98.98,0,0,1,1.96,0v2.044l1.183,1.183A.979.979,0,0,1,243.2,243.2Zm0,0" transform="translate(-223.887 -223.887)"/></g><g class="bg" transform="matrix(1, 0, 0, 1, 0, 0)"><rect class="l" width="340" height="126" rx="15" transform="translate(18 790)"/></g><g transform="translate(0 -1)"><g class="m" transform="translate(190 351)"><path class="bd" d="M 162 88.5 L 10 88.5 C 5.313090801239014 88.5 1.5 84.68691253662109 1.5 80 L 1.5 10 C 1.5 5.313090801239014 5.313090801239014 1.5 10 1.5 L 162 1.5 C 166.6869049072266 1.5 170.5 5.313090801239014 170.5 10 L 170.5 80 C 170.5 84.68691253662109 166.6869049072266 88.5 162 88.5 Z"/><path class="be" d="M 10 3 C 6.14019775390625 3 3 6.140190124511719 3 10 L 3 80 C 3 83.85980987548828 6.14019775390625 87 10 87 L 162 87 C 165.8598022460938 87 169 83.85980987548828 169 80 L 169 10 C 169 6.140190124511719 165.8598022460938 3 162 3 L 10 3 M 10 0 L 162 0 C 167.5228271484375 0 172 4.477142333984375 172 10 L 172 80 C 172 85.52285766601562 167.5228271484375 90 162 90 L 10 90 C 4.477142333984375 90 0 85.52285766601562 0 80 L 0 10 C 0 4.477142333984375 4.477142333984375 0 10 0 Z"/></g><g class="n" transform="translate(14 445)"><rect class="bd" width="172" height="90" rx="10"/><rect class="c" x="1.5" y="1.5" width="169" height="87" rx="8.5"/></g><g class="o" transform="translate(14 352)"><rect class="bd" width="172" height="89" rx="10"/><rect class="c" x="1.5" y="1.5" width="169" height="86" rx="8.5"/></g><g class="o" transform="translate(190 445)"><rect class="bd" width="172" height="89" rx="10"/><rect class="c" x="1.5" y="1.5" width="169" height="86" rx="8.5"/></g></g><g class="p" transform="translate(18 245)"><path class="bd" d="M0,0H340a0,0,0,0,1,0,0V60a15,15,0,0,1-15,15H15A15,15,0,0,1,0,60V0A0,0,0,0,1,0,0Z"/><path class="c" d="M3,1.5H337A1.5,1.5,0,0,1,338.5,3V60A13.5,13.5,0,0,1,325,73.5H15A13.5,13.5,0,0,1,1.5,60V3A1.5,1.5,0,0,1,3,1.5Z"/></g><g class="p" transform="translate(18 140)"><rect class="bd" width="340" height="180" rx="15"/><rect class="c" x="1.5" y="1.5" width="337" height="177" rx="13.5"/></g><text class="q" transform="translate(198 287)"><tspan x="0" y="0">$9,285.55</tspan></text><text class="r" transform="translate(101 287)"><tspan x="0" y="0">Current BTC Price</tspan></text><text class="r" transform="translate(146 191)"><tspan x="0" y="0">Available Balance</tspan></text><text class="s" transform="translate(105 227)"><tspan x="0" y="0">₦</tspan><tspan class="t" y="0">123,456.00</tspan></text><text class="u" transform="translate(18 104)"><tspan x="0" y="0">Remember that, This life no balance</tspan></text><text class="v" transform="translate(18 90)"><tspan x="0" y="0">Fisayo</tspan></text><g transform="translate(546 -620)"><g transform="translate(-546 613.616)"><path class="w" d="M20,0H355a20,20,0,0,1,20,20V63a0,0,0,0,1,0,0H0a0,0,0,0,1,0,0V20A20,20,0,0,1,20,0Z" transform="translate(0 755.384)"/><g transform="translate(-2 2)"><text class="x" transform="translate(33 805.384)"><tspan x="0" y="0">Dashboard</tspan></text><text class="y" transform="translate(123 805.384)"><tspan x="-16.396" y="0">Giftcards</tspan></text><text class="y" transform="translate(189 805.384)"><tspan x="-23.016" y="0">Transactions</tspan></text><text class="y" transform="translate(257 805.384)"><tspan x="-11.228" y="0">Wallet</tspan></text><text class="y" transform="translate(324 805.384)"><tspan x="-14.664" y="0">Settings</tspan></text></g></g><g transform="translate(-509 1380.919)"><path class="z" d="M41.328,31.077,29.475,21.114a.891.891,0,0,0-1.146,0L16.476,31.077A1.333,1.333,0,0,0,16,32.1v.962a1.335,1.335,0,0,0,2.193,1.022l1.442-1.212c.13.154.091-1.287.091,12.676a.89.89,0,0,0,.89.89H37.188a.89.89,0,0,0,.89-.89c0-13.538-.045-12.515.091-12.676l1.442,1.212A1.335,1.335,0,0,0,41.8,33.06V32.1a1.333,1.333,0,0,0-.476-1.022Z" transform="translate(-15.11 -19.742)"/><path class="aa" d="M91.631,101.466c-.374.05.284-.42-10.171,8.367v-1.307l-.091-.108,8.694-7.308a.89.89,0,0,1,1.145,0Z" transform="translate(-76.845 -95.291)"/><path class="ab" d="M41.8,32.1v.962a1.335,1.335,0,0,1-2.193,1.022l-10.136-8.52a.889.889,0,0,0-1.145,0L18.193,34.081A1.335,1.335,0,0,1,16,33.059V32.1a1.333,1.333,0,0,1,.476-1.022l11.853-9.963a.89.89,0,0,1,1.145,0l11.853,9.963A1.333,1.333,0,0,1,41.8,32.1Z" transform="translate(-15.11 -19.741)"/><path class="aa" d="M355.788,32c0,8.2.023,7.592-.046,7.673L351.3,35.939c.056-.066.039.385.039-3.939Z" transform="translate(-331.764 -30.22)"/><path class="ac" d="M29.613,21.262a.819.819,0,0,1-.014,1.265c-1.1.887-3.9,3.276-11.493,9.662a1.333,1.333,0,0,0-.476,1.022.819.819,0,0,1-1.585.322,4.01,4.01,0,0,1-.083-1.434,1.333,1.333,0,0,1,.476-1.022l11.853-9.963a.891.891,0,0,1,1.146,0Z" transform="translate(-15.072 -19.742)"/><path class="ad" d="M26.79,10.653,24.914,9.076V1.78a.89.89,0,0,0,0-1.78H18.685a.89.89,0,0,0,0,1.78V3.841L14.364.209a.89.89,0,0,0-1.145,0L.793,10.653A2.22,2.22,0,0,0,0,12.356v.962a2.224,2.224,0,0,0,3.726,1.644V26.693a.89.89,0,0,0,.89.89H22.967a.89.89,0,0,0,.89-.89c0-13.057-.031-11.758.07-11.673h0a2.225,2.225,0,0,0,3.656-1.7v-.962a2.22,2.22,0,0,0-.793-1.7ZM20.465,1.78h2.669v5.8L20.465,5.337ZM22.078,25.8H5.506V13.466L13.792,6.5l8.286,6.965ZM25.8,13.318a.444.444,0,0,1-.731.341l-10.708-9a.89.89,0,0,0-1.145,0l-10.708,9a.444.444,0,0,1-.731-.341c0-1.015-.044-1.132.159-1.3L13.792,2.052l11.853,9.963c.2.171.159.3.159,1.3ZM9.826,20.67,16.5,14a.89.89,0,0,1,1.258,1.258l-6.673,6.673A.89.89,0,1,1,9.826,20.67Zm6.746-.706A1.335,1.335,0,1,0,17.907,21.3,1.336,1.336,0,0,0,16.572,19.965Zm-5.561-4a1.335,1.335,0,1,0-1.335-1.335A1.336,1.336,0,0,0,11.011,15.96Z"/></g><g transform="translate(-401.616 1380.919)"><path class="aa" d="M178.438,23.527h-1.358a1.7,1.7,0,0,1,0-3.4l-1.529-2.791A.906.906,0,0,1,176.344,16h2.829a.906.906,0,0,1,.794,1.341l-1.529,2.791a1.7,1.7,0,0,1,0,3.4Z" transform="translate(-136.572 -15.094)"/><path class="aa" d="M62.607,167.723c-.21.015.7.01-12.359.01a3.622,3.622,0,0,1-3.557-4.3l1.481-7.721a8.265,8.265,0,0,1,16.234,0l1.481,7.721a3.623,3.623,0,0,1-3.28,4.294Z" transform="translate(-15.102 -140.567)"/><path class="ae" d="M180.943,16.554a.274.274,0,0,1-.284.375c-.07-.007.132-.005-2.927-.005a.9.9,0,0,0-.767.424.277.277,0,0,1-.48-.008A.906.906,0,0,1,177.279,16h2.829A.9.9,0,0,1,180.943,16.554Z" transform="translate(-137.507 -15.094)"/><path class="af" d="M178.8,89.019a.6.6,0,0,1-.128,1.189,1.7,1.7,0,0,0-1.679,1.429.6.6,0,0,1-.963.371,1.7,1.7,0,0,1,1.094-3.027A8.76,8.76,0,0,1,178.8,89.019Z" transform="translate(-136.574 -83.944)"/><path class="aa" d="M178.438,89a1.7,1.7,0,1,1,0,3.4H177.08a1.7,1.7,0,0,1,0-3.4Z" transform="translate(-136.572 -83.963)"/><path class="ag" d="M60.339,149.9a1,1,0,0,1-.528,1.877,8.273,8.273,0,0,0-8.621,6.7c-.5,2.619-.854,4.4-1.094,5.639a1.64,1.64,0,0,1-3.24-.484c.022-.179-.082.381,1.52-7.969A8.272,8.272,0,0,1,60.339,149.9Z" transform="translate(-15.306 -140.518)"/><path class="aa" d="M309.759,336.189a4.191,4.191,0,0,1-5.692,3.91h0a4.189,4.189,0,1,1,5.692-3.91Z" transform="translate(-255.442 -313.211)"/><path class="ag" d="M307.81,332.7a.667.667,0,0,1-.376,1.222,4.191,4.191,0,0,0-4.205,4.209.666.666,0,0,1-1.222.376,4.189,4.189,0,0,1,5.8-5.807Z" transform="translate(-255.368 -313.21)"/><path class="ah" d="M44.356,26.26h-9.21a2.717,2.717,0,0,1-2.668-3.229l1.482-7.721a7.359,7.359,0,0,1,14.455,0l.152.793a.906.906,0,0,0,1.779-.341l-.152-.793a9.185,9.185,0,0,0-6.061-6.956A2.6,2.6,0,0,0,43.194,4.5l1.73-3.156A.906.906,0,0,0,44.13,0H38.244a.906.906,0,0,0-.794,1.341L39.179,4.5a2.6,2.6,0,0,0-.938,3.517,9.185,9.185,0,0,0-6.061,6.956L30.7,22.69a4.528,4.528,0,0,0,4.446,5.381h9.21a.906.906,0,0,0,0-1.811ZM42.6,1.811l-1.271,2.32h-.286l-1.271-2.32ZM40.507,7.527a.792.792,0,1,1,0-1.585H41.86a.792.792,0,1,1,.006,1.585Zm3.1,9.046-4.694,4.694a.906.906,0,0,1-1.281-1.281l4.694-4.694a.906.906,0,0,1,1.281,1.281Zm-1.032,2.835a1.218,1.218,0,1,0,1.218,1.218A1.22,1.22,0,0,0,42.576,19.409Zm-3.912-2.257a1.218,1.218,0,1,0-1.219-1.218A1.22,1.22,0,0,0,38.665,17.152Zm11.464.732a5.094,5.094,0,1,0,5.094,5.094A5.1,5.1,0,0,0,50.129,17.884Zm0,8.376a3.283,3.283,0,1,1,3.283-3.283A3.286,3.286,0,0,1,50.129,26.26ZM51.9,22.486l-.492.492.492.492a.907.907,0,0,1-.64,1.546c-.47,0-.668-.293-1.132-.757l-.492.492a.906.906,0,1,1-1.281-1.281l.492-.492-.492-.492a.906.906,0,1,1,1.281-1.281l.492.492.492-.492A.906.906,0,1,1,51.9,22.486Z" transform="translate(0)"/></g><g transform="translate(-303 1358.466)"><path class="ag" d="M20,26.656H3.523A3.527,3.527,0,0,0,0,30.179V43.361a3.527,3.527,0,0,0,3.523,3.523H20.005a3.527,3.527,0,0,0,3.523-3.523V30.179A3.527,3.527,0,0,0,20,26.656Z" transform="translate(0 0)"/><path class="ag" d="M22.564,87.258H3.523A3.527,3.527,0,0,0,0,90.781v13.183a3.527,3.527,0,0,0,3.523,3.523H22.564a3.527,3.527,0,0,0,3.523-3.523V90.781A3.527,3.527,0,0,0,22.564,87.258Z" transform="translate(0 -57.485)"/><path class="aa" d="M26.087,90.78a3.527,3.527,0,0,0-3.523-3.523H3.523A3.527,3.527,0,0,0,0,90.78v12.091a37.9,37.9,0,0,0,7.14-2.925c7.258-3.661,14.359-1.128,18.947,1.306Z" transform="translate(0 -57.484)"/><path class="aa" d="M309.74,211.6h-6.07a3.771,3.771,0,0,0,0,7.542h6.07a.823.823,0,0,0,.823-.823v-5.9A.823.823,0,0,0,309.74,211.6Z" transform="translate(-284.476 -175.429)"/><path class="ag" d="M26.195,90.776a3.527,3.527,0,0,0-3.523-3.519H3.631A3.527,3.527,0,0,0,.114,90.583a5.8,5.8,0,0,0,6.7.338c4.448-2.64,11.744-2.121,19.376-.145Z" transform="translate(-0.108 -57.484)"/><path class="ah" d="M23.516,29.9A3.527,3.527,0,0,0,20,26.656H3.523A3.527,3.527,0,0,0,0,30.179v16.3A3.527,3.527,0,0,0,3.523,50H22.564a3.527,3.527,0,0,0,3.523-3.523V33.3A3.528,3.528,0,0,0,23.516,29.9ZM3.523,28.3H20.005a1.88,1.88,0,0,1,1.832,1.471H3.523a3.5,3.5,0,0,0-1.877.544v-.138A1.879,1.879,0,0,1,3.523,28.3ZM22.564,48.355H3.523a1.879,1.879,0,0,1-1.877-1.877V33.3a1.879,1.879,0,0,1,1.877-1.877H22.564A1.879,1.879,0,0,1,24.441,33.3v2.872H19.194a3.771,3.771,0,0,0,0,7.542h5.247v2.769a1.879,1.879,0,0,1-1.877,1.877Zm1.877-6.292H19.194a2.125,2.125,0,0,1,0-4.25h5.247Z"/><circle class="ah" cx="0.857" cy="0.857" r="0.857" transform="translate(18.643 39.144)"/></g><g transform="translate(-268 1383.546)"><path class="ag" d="M53.806,2.336V22.585a2.339,2.339,0,0,1-2.336,2.336H34.336A2.339,2.339,0,0,1,32,22.585V2.336A2.339,2.339,0,0,1,34.336,0H51.47A2.339,2.339,0,0,1,53.806,2.336Z"/><path class="aa" d="M53.806,2.336V9.346A10.9,10.9,0,1,1,32,9.346V2.336A2.339,2.339,0,0,1,34.336,0H51.47A2.339,2.339,0,0,1,53.806,2.336Z"/><path class="ai" d="M186.587,368v.128c-.093-.041-.185-.084-.277-.128Z" transform="translate(-146.799 -350.088)"/><path class="ag" d="M39.788,371.024v3.894H34.336A2.339,2.339,0,0,1,32,372.581v-4.673c3.374,0,3.265-.039,3.516.111l3.894,2.336A.779.779,0,0,1,39.788,371.024Z" transform="translate(0 -349.996)"/><path class="ag" d="M111.576,71.788A7.788,7.788,0,1,1,103.788,64,7.788,7.788,0,0,1,111.576,71.788Z" transform="translate(-60.885 -60.885)"/><path class="aa" d="M157.174,70.683a6.62,6.62,0,1,1-10.459-6.28A7.8,7.8,0,0,1,157.174,70.683Z" transform="translate(-106.548 -60.793)"/><path class="ah" d="M51.47,0H34.336A2.339,2.339,0,0,0,32,2.336V22.585a2.339,2.339,0,0,0,2.336,2.336H51.47a2.339,2.339,0,0,0,2.336-2.336V2.336A2.339,2.339,0,0,0,51.47,0ZM38.23,23.364H34.336a.78.78,0,0,1-.779-.779V19.47H34.9l3.331,2Zm14.018-.779a.78.78,0,0,1-.779.779H39.788V21.027a.779.779,0,0,0-.378-.668l-1.579-.947,1.56-1.56a7.812,7.812,0,1,0-1.34-.863l-1.6,1.6c-.982-.589-1.054-.674-1.34-.674H33.558V2.336a.78.78,0,0,1,.779-.779H51.47a.78.78,0,0,1,.779.779Zm-11.131-7.56a.778.778,0,0,0-1.1,0l-.856.855a6.225,6.225,0,1,1,1.405.8l.551-.551a.778.778,0,0,0,0-1.1Z"/><path class="ah" d="M165.452,128.779a.779.779,0,0,0-.779-.779A4.678,4.678,0,0,0,160,132.673a.779.779,0,0,0,1.558,0,3.119,3.119,0,0,1,3.115-3.115A.779.779,0,0,0,165.452,128.779Z" transform="translate(-121.77 -121.77)"/><path class="ah" d="M240,212.673a.779.779,0,0,0,.779.779,4.678,4.678,0,0,0,4.673-4.673.779.779,0,1,0-1.558,0,3.119,3.119,0,0,1-3.115,3.115A.779.779,0,0,0,240,212.673Z" transform="translate(-197.876 -197.876)"/><path class="ah" d="M224,193.558A1.558,1.558,0,1,0,225.558,192,1.559,1.559,0,0,0,224,193.558Z" transform="translate(-182.654 -182.654)"/></g><g transform="translate(-3 88)"><g transform="translate(-437 1258.252)"><path class="aa" d="M43.363,59.294V74.61a1.846,1.846,0,0,1-1.887,1.8H31.863c0,1.705-4.364,0-4.364,0H17.887A1.846,1.846,0,0,1,16,74.61V59.294a1.846,1.846,0,0,1,1.887-1.8H41.476A1.846,1.846,0,0,1,43.363,59.294Z" transform="translate(-15.099 -15.099)"/><path class="ag" d="M41.522,59.744H20.248a1.847,1.847,0,0,0-1.889,1.8V74.63a1.184,1.184,0,0,1-2.36.064c0-.065,0-15.456,0-15.4a1.847,1.847,0,0,1,1.889-1.8H41.5a1.128,1.128,0,1,1,.019,2.252Z" transform="translate(-15.096 -15.099)"/><path class="ah" d="M26.342,41.492H2.822A2.768,2.768,0,0,0,0,44.195V59.511a2.768,2.768,0,0,0,2.822,2.7h8.644c3.279,0,2.378,0,6.233,0h8.644a2.768,2.768,0,0,0,2.822-2.7V44.195a2.768,2.768,0,0,0-2.822-2.7Zm.941,18.019a.923.923,0,0,1-.941.9H2.822a.923.923,0,0,1-.941-.9V44.195a.923.923,0,0,1,.941-.9h23.52a.923.923,0,0,1,.941.9Z"/></g></g><path class="ah" d="M8.03,1.943H5.938A1,1,0,0,0,5.605,0H5.523a1,1,0,0,0-.906.577L4.145,1.589,3.672.577A1,1,0,0,0,2.766,0H2.684a1,1,0,0,0-.332,1.943H.259A.259.259,0,0,0,0,2.2V3.626a.259.259,0,0,0,.259.259H.518V8.03a.259.259,0,0,0,.259.259H7.512a.259.259,0,0,0,.259-.259V3.885H8.03a.259.259,0,0,0,.259-.259V2.2A.259.259,0,0,0,8.03,1.943ZM4.146,6.834C3.662,6.579,2.931,6.082,2.8,5.551A.605.605,0,0,1,3.918,5.1a.259.259,0,0,0,.453,0A.6.6,0,0,1,5.5,5.4C5.5,5.979,4.661,6.564,4.146,6.834ZM4.663,4.3a1.125,1.125,0,0,0-.518.267A1.124,1.124,0,0,0,3.626,4.3V3.885H4.663Zm.259-.932H3.367V2.461H4.922ZM5.086.8A.484.484,0,0,1,5.523.518h.083a.482.482,0,0,1,.136.944l-1.12.329ZM2.2,1A.482.482,0,0,1,2.684.518h.083A.484.484,0,0,1,3.2.8l.464,1-1.12-.329A.484.484,0,0,1,2.2,1ZM.518,2.461H2.849v.907H.518Zm.518,1.425H3.108V4.31A1.125,1.125,0,0,0,2.3,5.673a2.127,2.127,0,0,0,.808,1.1v1H1.036Zm2.59,3.885V7.135c.229.139.4.218.409.223a.259.259,0,0,0,.219,0c.01,0,.179-.084.409-.223v.636Zm3.626,0H5.181v-1c1.412-1.129.79-2.264,0-2.466V3.885H7.253Zm.518-4.4H5.44V2.461H7.771Z" transform="translate(-425 1393.711)"/></g><line class="aj" x2="249" transform="translate(63.5 253.5)"/><text class="ak" transform="translate(165 404)"><tspan x="-68.328" y="0">Buy Bitcoin</tspan></text><text class="ak" transform="translate(165 495)"><tspan x="-49.152" y="0">Pay Bills</tspan></text><text class="ak" transform="translate(341 495)"><tspan x="-79.032" y="0">Airtime-Data</tspan></text><text class="ak" transform="translate(341 404)"><tspan x="-67.02" y="0">Sell Bitcoin</tspan></text><g transform="translate(315 165.364)"><path class="al" d="M10.1,6.536A1.119,1.119,0,0,1,9,5.4a1.16,1.16,0,0,1,.262-.735A1.625,1.625,0,0,0,9,4.643,1.851,1.851,0,0,0,7.2,6.536,1.851,1.851,0,0,0,9,8.429a1.851,1.851,0,0,0,1.8-1.893c0-.082-.007-.163-.014-.245A1.08,1.08,0,0,1,10.1,6.536Z" transform="translate(0 -1.191)"/><path class="al" d="M9,0C5.709,0,3.146,2.027,0,5.318c2.708,2.813,4.982,5.318,9,5.318s6.967-3.174,9-5.26C15.919,2.933,12.97,0,9,0ZM9,8.357A3.36,3.36,0,0,1,5.4,5.318,3.358,3.358,0,0,1,9,2.279a3.36,3.36,0,0,1,3.6,3.039A3.358,3.358,0,0,1,9,8.357Z"/></g><g transform="translate(-14 329)"><g transform="translate(57.14 57.14)"><g transform="translate(0 12.998)"><g transform="translate(0.459 0.459)"><g transform="translate(0 0)"><circle class="am" cx="6.402" cy="6.402" r="6.402"/></g><g transform="translate(0)"><path class="an" d="M131.794,263.335a6.382,6.382,0,0,0,1.957,4.606,6.4,6.4,0,0,0,6.759-10.577,6.4,6.4,0,0,0-8.716,5.971Z" transform="translate(-131.794 -256.933)"/></g><g class="ao" transform="translate(-11.599 -23.597)"><circle class="bd" cx="24" cy="24" r="24"/><circle class="c" cx="24" cy="24" r="22.5"/></g></g><path class="ap" d="M134.234,266.235a6.861,6.861,0,1,1,6.861-6.861A6.869,6.869,0,0,1,134.234,266.235Zm0-12.808a5.948,5.948,0,1,0,5.947,5.947A5.954,5.954,0,0,0,134.234,253.426Z" transform="translate(-127.373 -252.513)"/></g><g transform="translate(0 8.717)"><g transform="translate(0.457 0.457)"><path class="an" d="M133.7,215.692h1.928l-.964,1.795-.964,1.795-.964-1.795-.964-1.795Z" transform="translate(-131.771 -215.692)"/></g><path class="ap" d="M129.759,215.8a.457.457,0,0,1-.4-.241l-1.928-3.59a.457.457,0,0,1,.4-.673h3.855a.457.457,0,0,1,.4.673l-1.928,3.59A.457.457,0,0,1,129.759,215.8Zm-1.164-3.59,1.164,2.168,1.164-2.168Z" transform="translate(-127.374 -211.296)"/></g><g transform="translate(21.931 13.5)"><g transform="translate(0.457 0.457)"><path class="an" d="M344.844,265.337h1.928l-.964-1.795-.964-1.795-.964,1.795-.964,1.795Z" transform="translate(-342.916 -261.747)"/></g><path class="ap" d="M342.83,261.853h-3.855a.457.457,0,0,1-.4-.673l1.928-3.59a.457.457,0,0,1,.8,0l1.928,3.59a.457.457,0,0,1-.4.673Zm-3.091-.913h2.328l-1.164-2.168Z" transform="translate(-338.519 -257.35)"/></g><g transform="translate(1.928 0.002)"><path class="ap" d="M146.389,137.024a.457.457,0,0,1-.457-.457V132a4.608,4.608,0,0,1,4.6-4.6h5.692a.457.457,0,0,1,0,.913h-5.692A3.693,3.693,0,0,0,146.845,132v4.568A.457.457,0,0,1,146.389,137.024Z" transform="translate(-145.932 -127.397)"/></g><g transform="translate(14.021 17.09)"><path class="ap" d="M268.511,301.539H262.82a.457.457,0,0,1,0-.913h5.691a3.693,3.693,0,0,0,3.689-3.689v-4.568a.457.457,0,1,1,.913,0v4.568A4.608,4.608,0,0,1,268.511,301.539Z" transform="translate(-262.363 -291.912)"/></g><g transform="translate(12.998 0)"><g transform="translate(0.459 0.459)"><g transform="translate(0 0)"><circle class="am" cx="6.402" cy="6.402" r="6.402"/></g><g transform="translate(0)"><path class="an" d="M256.934,138.2a5.4,5.4,0,1,0,10.672-1.364,5.4,5.4,0,1,0-10.672,1.364Z" transform="translate(-256.934 -131.794)"/></g></g><path class="ap" d="M259.374,141.1a6.861,6.861,0,1,1,6.861-6.861A6.869,6.869,0,0,1,259.374,141.1Zm0-12.808a5.948,5.948,0,1,0,5.948,5.947A5.954,5.954,0,0,0,259.374,128.287Z" transform="translate(-252.513 -127.374)"/></g></g></g><g transform="translate(162 329)"><g class="ao" transform="translate(46 47)"><circle class="bd" cx="24" cy="24" r="24"/><circle class="c" cx="24" cy="24" r="22.5"/></g><g transform="translate(57.14 57.14)"><g transform="translate(0 12.998)"><g transform="translate(0.459 0.459)"><g transform="translate(0 0)"><circle class="aq" cx="6.402" cy="6.402" r="6.402"/></g><g transform="translate(0)"><path class="ar" d="M131.794,263.335a6.382,6.382,0,0,0,1.957,4.606,6.4,6.4,0,0,0,6.759-10.577,6.4,6.4,0,0,0-8.716,5.971Z" transform="translate(-131.794 -256.933)"/></g></g><path class="as" d="M134.234,266.235a6.861,6.861,0,1,1,6.861-6.861A6.869,6.869,0,0,1,134.234,266.235Zm0-12.808a5.948,5.948,0,1,0,5.947,5.947A5.954,5.954,0,0,0,134.234,253.426Z" transform="translate(-127.373 -252.513)"/></g><g transform="translate(0 8.717)"><g transform="translate(0.457 0.457)"><path class="ar" d="M133.7,215.692h1.928l-.964,1.795-.964,1.795-.964-1.795-.964-1.795Z" transform="translate(-131.771 -215.692)"/></g><path class="as" d="M129.759,215.8a.457.457,0,0,1-.4-.241l-1.928-3.59a.457.457,0,0,1,.4-.673h3.855a.457.457,0,0,1,.4.673l-1.928,3.59A.457.457,0,0,1,129.759,215.8Zm-1.164-3.59,1.164,2.168,1.164-2.168Z" transform="translate(-127.374 -211.296)"/></g><g transform="translate(21.931 13.5)"><g transform="translate(0.457 0.457)"><path class="ar" d="M344.844,265.337h1.928l-.964-1.795-.964-1.795-.964,1.795-.964,1.795Z" transform="translate(-342.916 -261.747)"/></g><path class="as" d="M342.83,261.853h-3.855a.457.457,0,0,1-.4-.673l1.928-3.59a.457.457,0,0,1,.8,0l1.928,3.59a.457.457,0,0,1-.4.673Zm-3.091-.913h2.328l-1.164-2.168Z" transform="translate(-338.519 -257.35)"/></g><g transform="translate(1.928 0.002)"><path class="as" d="M146.389,137.024a.457.457,0,0,1-.457-.457V132a4.608,4.608,0,0,1,4.6-4.6h5.692a.457.457,0,0,1,0,.913h-5.692A3.693,3.693,0,0,0,146.845,132v4.568A.457.457,0,0,1,146.389,137.024Z" transform="translate(-145.932 -127.397)"/></g><g transform="translate(14.021 17.09)"><path class="as" d="M268.511,301.539H262.82a.457.457,0,0,1,0-.913h5.691a3.693,3.693,0,0,0,3.689-3.689v-4.568a.457.457,0,1,1,.913,0v4.568A4.608,4.608,0,0,1,268.511,301.539Z" transform="translate(-262.363 -291.912)"/></g><g transform="translate(12.998 0)"><g transform="translate(0.459 0.459)"><g transform="translate(0 0)"><circle class="aq" cx="6.402" cy="6.402" r="6.402"/></g><g transform="translate(0)"><path class="ar" d="M256.934,138.2a5.4,5.4,0,1,0,10.672-1.364,5.4,5.4,0,1,0-10.672,1.364Z" transform="translate(-256.934 -131.794)"/></g></g><path class="as" d="M259.374,141.1a6.861,6.861,0,1,1,6.861-6.861A6.869,6.869,0,0,1,259.374,141.1Zm0-12.808a5.948,5.948,0,1,0,5.948,5.947A5.954,5.954,0,0,0,259.374,128.287Z" transform="translate(-252.513 -127.374)"/></g></g></g><g transform="translate(126 390.674)"><g class="ao" transform="translate(82 76.326)"><circle class="bd" cx="24" cy="24" r="24"/><circle class="c" cx="24" cy="24" r="22.5"/></g><g transform="translate(91.034 84.802)"><g transform="translate(5.34 0)"><g transform="translate(0.577 0.553)"><path class="at" d="M170.749,121.237H157.341a2.073,2.073,0,0,1-2.073-2.073V92.874a2.073,2.073,0,0,1,2.073-2.073h13.409a2.073,2.073,0,0,1,2.073,2.073v26.29A2.073,2.073,0,0,1,170.749,121.237Z" transform="translate(-155.268 -90.801)"/></g><g transform="translate(14.957 0.553)"><path class="au" d="M312.467,90.8h-1.1v30.436h1.1a2.073,2.073,0,0,0,2.073-2.073V92.874A2.073,2.073,0,0,0,312.467,90.8Z" transform="translate(-311.365 -90.801)"/></g><g transform="translate(0.577 5.075)"><rect class="w" width="17.554" height="18.896"/></g><g transform="translate(14.957 5.075)"><rect class="at" width="3.175" height="18.896"/></g><path class="av" d="M165.3,116.343H151.895a2.629,2.629,0,0,1-2.626-2.626V87.428a2.629,2.629,0,0,1,2.626-2.626H165.3a2.629,2.629,0,0,1,2.626,2.626v26.29A2.629,2.629,0,0,1,165.3,116.343ZM151.895,85.907a1.522,1.522,0,0,0-1.52,1.52v26.29a1.522,1.522,0,0,0,1.52,1.52H165.3a1.522,1.522,0,0,0,1.52-1.52V87.428a1.522,1.522,0,0,0-1.52-1.52Z" transform="translate(-149.269 -84.802)"/><g transform="translate(4.79 0.691)"><path class="av" d="M226.218,111.412h-7.467c-.464,0-.841-.248-.841-.553s.377-.553.841-.553h7.467c.464,0,.841.248.841.553S226.682,111.412,226.218,111.412Z" transform="translate(-217.91 -110.307)"/></g></g><g transform="translate(17.658 4.906)"><g transform="translate(3.879 7.529)"><path class="aw" d="M324.84,219.783v3.9l2.053-2.777Z" transform="translate(-324.84 -219.783)"/></g><g transform="translate(0.553 0.553)"><path class="aw" d="M288.726,149.211l7.138,3.911,4.491-9.064Z" transform="translate(-288.726 -144.058)"/></g><g transform="translate(0 0)"><path class="av" d="M290.417,148.226a.552.552,0,0,1-.266-.068l-7.138-3.911a.553.553,0,0,1,.042-.99l11.629-5.153a.553.553,0,0,1,.719.751l-4.491,9.064a.553.553,0,0,1-.5.307Zm-5.892-4.412,5.653,3.1,3.556-7.178Z" transform="translate(-282.727 -138.056)"/></g><g transform="translate(3.327 6.976)"><path class="av" d="M319.393,218.791a.553.553,0,0,1-.553-.553v-3.9a.553.553,0,0,1,.818-.485l2.053,1.125a.553.553,0,0,1,.179.813l-2.053,2.777A.553.553,0,0,1,319.393,218.791Zm.553-3.522v1.292l.68-.919Z" transform="translate(-318.84 -213.784)"/></g><g transform="translate(3.327)"><path class="av" d="M319.392,146.137a.553.553,0,0,1-.356-.976l8.3-6.976a.553.553,0,0,1,.711.846l-8.3,6.976A.55.55,0,0,1,319.392,146.137Z" transform="translate(-318.839 -138.056)"/></g></g><g transform="translate(8.347 6.514)"><g transform="translate(0.553 0.553)"><path class="aw" d="M187.643,163.92v-2.407l2.241,1.2,2.241,1.2-2.241,1.2-2.241,1.2Z" transform="translate(-187.643 -161.513)"/></g><path class="av" d="M182.2,161.432a.553.553,0,0,1-.553-.553v-4.814a.553.553,0,0,1,.814-.487l4.482,2.407a.553.553,0,0,1,0,.974l-4.482,2.407A.553.553,0,0,1,182.2,161.432Zm.553-4.442v2.966l2.762-1.483Z" transform="translate(-181.643 -155.513)"/></g><g transform="translate(0 8.921)"><path class="av" d="M96.679,189.289H94.857a3.823,3.823,0,0,1,0-7.646h5.077a.553.553,0,1,1,0,1.105H94.857a2.718,2.718,0,0,0,0,5.435h1.822a.553.553,0,0,1,0,1.105Z" transform="translate(-91.034 -181.643)"/></g></g></g><g transform="translate(-27 365)"><g class="ao" transform="translate(59 102)"><circle class="bd" cx="24" cy="24" r="24"/><circle class="c" cx="24" cy="24" r="22.5"/></g><g transform="translate(66.398 113.001)"><g transform="translate(7.729 0.469)"><path class="w" d="M169.606,118.142H151.1v4.026h2.42V143.3h18.506V120.562A2.42,2.42,0,0,0,169.606,118.142Z" transform="translate(-151.1 -118.142)"/></g><g transform="translate(25.091 0.469)"><path class="at" d="M342.518,118.142h-1.143V143.3h3.563V120.562A2.42,2.42,0,0,0,342.518,118.142Z" transform="translate(-341.375 -118.142)"/></g><g transform="translate(7.26 0)"><path class="av" d="M167.353,139.1H148.847a.469.469,0,0,1-.469-.469V117.966h-1.951a.469.469,0,0,1-.469-.469V113.47a.469.469,0,0,1,.469-.469h18.506a2.892,2.892,0,0,1,2.889,2.889v22.739A.469.469,0,0,1,167.353,139.1Zm-18.037-.938h17.567V115.89a1.953,1.953,0,0,0-1.951-1.951H146.9v3.088h1.951a.469.469,0,0,1,.469.469Z" transform="translate(-145.958 -113.001)"/></g><g transform="translate(12.64 4.382)"><path class="av" d="M218.011,161.957H205.384a.469.469,0,0,1,0-.938h12.626a.469.469,0,0,1,0,.938Z" transform="translate(-204.915 -161.019)"/></g><g transform="translate(12.64 8.76)"><path class="av" d="M218.011,209.944H205.384a.469.469,0,0,1,0-.938h12.626a.469.469,0,0,1,0,.938Z" transform="translate(-204.915 -209.006)"/></g><g transform="translate(12.64 13.139)"><path class="av" d="M218.011,257.931H205.384a.469.469,0,0,1,0-.938h12.626a.469.469,0,0,1,0,.938Z" transform="translate(-204.915 -256.993)"/></g><g transform="translate(12.64 17.518)"><path class="av" d="M218.011,305.918H205.384a.469.469,0,1,1,0-.938h12.626a.469.469,0,1,1,0,.938Z" transform="translate(-204.915 -304.98)"/></g><g transform="translate(12.64 21.897)"><path class="av" d="M218.011,353.905H205.384a.469.469,0,1,1,0-.938h12.626a.469.469,0,1,1,0,.938Z" transform="translate(-204.915 -352.967)"/></g><g transform="translate(22.707 7.704)"><g transform="translate(0.471 0.471)"><circle class="ax" cx="5.476" cy="5.476" r="5.476"/><g transform="translate(0 0)"><path class="aw" d="M320.415,208.074a5.479,5.479,0,1,0,5.476-5.476A5.46,5.46,0,0,0,320.415,208.074Z" transform="translate(-320.415 -202.598)"/></g></g><path class="av" d="M321.2,209.328a5.947,5.947,0,1,1,5.947-5.947A5.954,5.954,0,0,1,321.2,209.328Zm0-10.956a5.009,5.009,0,1,0,5.009,5.009A5.015,5.015,0,0,0,321.2,198.371Z" transform="translate(-315.25 -197.433)"/></g><g transform="translate(2.889 0.469)"><path class="aw" d="M102.9,118.142a2.42,2.42,0,0,0-2.42,2.42v13.293H98.06V136.5h7.26V120.562A2.42,2.42,0,0,0,102.9,118.142Z" transform="translate(-98.06 -118.142)"/></g><g transform="translate(2.42 0)"><path class="av" d="M100.647,132.3h-7.26a.469.469,0,0,1-.469-.469v-2.646a.469.469,0,0,1,.469-.469h1.951V115.89a2.889,2.889,0,0,1,5.778,0v15.939A.469.469,0,0,1,100.647,132.3Zm-6.791-.938h6.321V115.89a1.951,1.951,0,0,0-3.9,0v13.293a.469.469,0,0,1-.469.469H93.856v1.707Z" transform="translate(-92.918 -113.001)"/></g><g transform="translate(0.469 13.537)"><path class="ay" d="M73.96,266.641h0a2.42,2.42,0,0,0,2.42-2.42v-2.872H71.54v2.872A2.42,2.42,0,0,0,73.96,266.641Z" transform="translate(-71.54 -261.349)"/></g><g transform="translate(0 13.067)"><path class="av" d="M69.287,262.436a2.892,2.892,0,0,1-2.889-2.889v-2.872a.469.469,0,0,1,.469-.469h4.84a.469.469,0,0,1,.469.469v2.872A2.892,2.892,0,0,1,69.287,262.436Zm-1.951-5.292v2.4a1.951,1.951,0,1,0,3.9,0v-2.4Z" transform="translate(-66.398 -256.206)"/></g></g></g><g class="az" transform="translate(14 558)"><rect class="bd" width="348" height="89" rx="10"/><rect class="c" x="1.5" y="1.5" width="345" height="86" rx="8.5"/></g><g class="o" transform="translate(14 648)"><rect class="bd" width="348" height="89" rx="10"/><rect class="c" x="1.5" y="1.5" width="345" height="86" rx="8.5"/></g><rect class="ba" width="79" height="51" transform="translate(39 577)"/><text class="bb" transform="translate(341 607)"><tspan x="-110.652" y="0">Virtual Dollar Card</tspan></text><text class="bb" transform="translate(341 705)"><tspan x="-88.86" y="0">Refer and Earn</tspan></text><image class="bc" width="160" height="120" transform="translate(20 635)" xlink:href="iPhone%20X-XS-11%20Pro%20-%2047-image.png"/></g></svg>